<svg width="24" height="24" viewBox="0 0 24 24" fill="none" xmlns="http://www.w3.org/2000/svg">
<path fill-rule="evenodd" clip-rule="evenodd" d="M11.4774 1.33639C11.8197 1.24371 12.1805 1.24371 12.5228 1.33639C12.9202 1.44398 13.2548 1.70663 13.5218 1.91627C13.5473 1.93628 13.5721 1.95581 13.5964 1.97468L20.3787 7.2498C20.4048 7.27011 20.4307 7.29022 20.4564 7.31016C20.833 7.60244 21.1648 7.85994 21.4121 8.19424C21.6291 8.48762 21.7907 8.81813 21.8891 9.16953C22.0012 9.56995 22.0007 9.98996 22.0002 10.4667C22.0002 10.4992 22.0001 10.532 22.0001 10.5651V17.8386C22.0002 18.3657 22.0002 18.8205 21.9696 19.195C21.9373 19.5904 21.866 19.9836 21.6732 20.362C21.3855 20.9265 20.9266 21.3854 20.3621 21.673C19.9837 21.8658 19.5905 21.9371 19.1952 21.9694C18.8206 22 18.3658 22 17.8387 22H6.16157C5.63443 22 5.17968 22 4.80511 21.9694C4.40977 21.9371 4.01655 21.8658 3.63817 21.673C3.07368 21.3854 2.61474 20.9265 2.32712 20.362C2.13433 19.9836 2.06301 19.5904 2.03071 19.195C2.00011 18.8205 2.00012 18.3657 2.00014 17.8386L2.00014 10.5651C2.00014 10.532 2.0001 10.4992 2.00007 10.4667C1.99955 9.98996 1.9991 9.56995 2.11118 9.16953C2.20954 8.81813 2.37119 8.48762 2.58818 8.19424C2.83544 7.85994 3.16725 7.60243 3.54389 7.31015C3.56958 7.29021 3.59549 7.2701 3.62159 7.2498L10.4039 1.97468C10.4282 1.95581 10.453 1.93628 10.4785 1.91627C10.7455 1.70663 11.0801 1.44398 11.4774 1.33639ZM10.0001 20H14.0001V13.6C14.0001 13.3035 13.9994 13.1412 13.9898 13.0246C13.9895 13.02 13.9891 13.0156 13.9887 13.0115C13.9845 13.0111 13.9801 13.0107 13.9755 13.0103C13.8589 13.0008 13.6967 13 13.4001 13H10.6001C10.3036 13 10.1414 13.0008 10.0248 13.0103C10.0201 13.0107 10.0157 13.0111 10.0116 13.0115C10.0112 13.0156 10.0108 13.02 10.0104 13.0246C10.0009 13.1412 10.0001 13.3035 10.0001 13.6V20ZM16.0001 20L16.0001 13.5681C16.0002 13.3157 16.0002 13.0699 15.9832 12.8618C15.9645 12.6332 15.9204 12.3635 15.7822 12.092C15.5904 11.7157 15.2844 11.4097 14.9081 11.218C14.6367 11.0797 14.367 11.0356 14.1384 11.017C13.9302 11 13.6844 11 13.432 11H10.5683C10.3159 11 10.0701 11 9.86191 11.017C9.63332 11.0356 9.36358 11.0797 9.09216 11.218C8.71583 11.4097 8.40987 11.7157 8.21813 12.092C8.07983 12.3635 8.03576 12.6332 8.01709 12.8618C8.00008 13.0699 8.00011 13.3157 8.00014 13.5681L8.00014 20H6.20014C5.62359 20 5.25131 19.9992 4.96798 19.9761C4.69631 19.9539 4.59559 19.9162 4.54615 19.891C4.35799 19.7951 4.20501 19.6422 4.10913 19.454C4.08394 19.4046 4.04626 19.3038 4.02407 19.0322C4.00092 18.7488 4.00014 18.3766 4.00014 17.8V10.5651C4.00014 9.93409 4.00883 9.80983 4.03715 9.70863C4.06994 9.5915 4.12382 9.48133 4.19615 9.38353C4.25864 9.29904 4.3514 9.2159 4.84947 8.82851L11.6318 3.55338C11.8187 3.40801 11.9177 3.33177 11.9928 3.28156C11.9954 3.27986 11.9978 3.27825 12.0001 3.27672C12.0025 3.27825 12.0049 3.27986 12.0074 3.28156C12.0826 3.33177 12.1816 3.40801 12.3685 3.55338L19.1508 8.82851C19.6489 9.2159 19.7416 9.29904 19.8041 9.38353C19.8765 9.48133 19.9303 9.5915 19.9631 9.70863C19.9915 9.80983 20.0001 9.93409 20.0001 10.5651V17.8C20.0001 18.3766 19.9994 18.7488 19.9762 19.0322C19.954 19.3038 19.9163 19.4046 19.8911 19.454C19.7953 19.6422 19.6423 19.7951 19.4541 19.891C19.4047 19.9162 19.304 19.9539 19.0323 19.9761C18.749 19.9992 18.3767 20 17.8001 20H16.0001Z" fill="#F9F9F9"/>
</svg>
