<svg width="198" height="48" viewBox="0 0 198 48" fill="none" xmlns="http://www.w3.org/2000/svg">
<path d="M31.2289 2H14.3711L0.799988 15.5711V32.4289L14.3711 46H31.2289L44.8 32.4289V15.5711L31.2289 2ZM16.7036 32.641L8.00965 23.947L16.7036 15.253C19.9903 11.9663 25.3976 11.9663 28.6843 15.253L37.3783 23.947L28.6843 32.641C25.3976 35.9277 20.0964 35.9277 16.7036 32.641Z" fill="#444CE7"/>
<path d="M64.14 34.24C66.84 34.24 69.06 32.86 69.75 30.79V34H73.74V25.9C73.74 24.07 72.3 22.51 70.35 22.51H64.65V25.9H68.7C69.21 25.9 69.54 26.23 69.54 26.74C69.54 28.69 66.96 30.58 64.35 30.58C60.87 30.58 58.11 27.85 58.11 23.5C58.11 19.15 60.87 16.63 64.44 16.63C67.14 16.63 69 18.1 69.33 20.35H73.8C73.53 15.85 69.75 12.76 64.47 12.76C58.92 12.76 53.82 16.33 53.82 23.5C53.82 30.67 58.77 34.24 64.14 34.24Z" fill="#101828"/>
<path d="M75.4528 34H79.6228V12.31H75.4528V34Z" fill="#101828"/>
<path d="M88.6179 34.24C93.2679 34.24 96.5979 30.94 96.5979 26.44C96.5979 21.94 93.2679 18.64 88.6179 18.64C83.9679 18.64 80.6379 21.94 80.6379 26.44C80.6379 30.94 83.9679 34.24 88.6179 34.24ZM88.6179 30.64C86.3679 30.64 84.8379 28.93 84.8379 26.44C84.8379 23.92 86.3679 22.21 88.6179 22.21C90.8679 22.21 92.3979 23.92 92.3979 26.44C92.3979 28.93 90.8679 30.64 88.6179 30.64Z" fill="#101828"/>
<path d="M105.929 34.24C110.399 34.24 113.069 31.15 113.069 26.44C113.069 21.73 110.399 18.64 105.989 18.64C104.099 18.64 102.629 19.36 101.789 20.47V12.31H97.6188V34H101.789V32.35C102.629 33.52 104.189 34.24 105.929 34.24ZM105.269 30.64C103.019 30.64 101.549 28.96 101.549 26.44C101.549 23.89 103.019 22.21 105.269 22.21C107.459 22.21 108.959 23.89 108.959 26.44C108.959 28.96 107.459 30.64 105.269 30.64Z" fill="#101828"/>
<path d="M120.049 18.64C115.909 18.64 113.449 21.07 113.269 24.1H116.989C117.049 22.84 117.979 21.7 119.809 21.7C121.519 21.7 122.509 22.57 122.509 23.83C122.509 24.46 122.119 24.94 121.369 24.94H118.819C115.519 24.94 113.299 26.74 113.299 29.71C113.299 32.29 115.309 34.24 118.249 34.24C120.319 34.24 121.999 33.31 122.509 31.9V34H126.649V24.28C126.649 20.86 123.859 18.64 120.049 18.64ZM119.299 31.21C118.129 31.21 117.289 30.52 117.289 29.53C117.289 28.36 118.189 27.58 119.449 27.58H122.509V27.79C122.509 29.71 121.339 31.21 119.299 31.21Z" fill="#101828"/>
<path d="M128.252 34H132.422V12.31H128.252V34Z" fill="#101828"/>
<path d="M134.637 34H143.217C147.657 34 150.717 31.72 150.717 27.73C150.717 24.97 149.097 23.29 147.177 22.54C148.407 21.88 149.637 20.38 149.637 18.4C149.637 14.89 146.787 13 142.977 13H134.637V34ZM139.077 21.01V16.57H142.557C144.567 16.57 145.467 17.38 145.467 18.79C145.467 20.2 144.567 21.01 142.647 21.01H139.077ZM139.077 30.1V24.82H142.827C145.317 24.82 146.427 25.78 146.427 27.49C146.427 29.2 145.317 30.1 142.827 30.1H139.077Z" fill="#101828"/>
<path d="M157.971 18.64C153.831 18.64 151.371 21.07 151.191 24.1H154.911C154.971 22.84 155.901 21.7 157.731 21.7C159.441 21.7 160.431 22.57 160.431 23.83C160.431 24.46 160.041 24.94 159.291 24.94H156.741C153.441 24.94 151.221 26.74 151.221 29.71C151.221 32.29 153.231 34.24 156.171 34.24C158.241 34.24 159.921 33.31 160.431 31.9V34H164.571V24.28C164.571 20.86 161.781 18.64 157.971 18.64ZM157.221 31.21C156.051 31.21 155.211 30.52 155.211 29.53C155.211 28.36 156.111 27.58 157.371 27.58H160.431V27.79C160.431 29.71 159.261 31.21 157.221 31.21Z" fill="#101828"/>
<path d="M165.934 34H170.134V25.72C170.134 23.77 171.424 22.36 173.254 22.36C174.994 22.36 176.164 23.68 176.164 25.51V34H180.364V24.58C180.364 21.1 178.144 18.64 174.724 18.64C172.654 18.64 170.974 19.51 170.134 20.98V18.88H165.934V34Z" fill="#101828"/>
<path d="M192.334 34H197.374L190.864 24.82L196.894 18.88H191.614L186.364 24.04V12.31H182.164V34H186.364V29.26L188.044 27.61L192.334 34Z" fill="#101828"/>
</svg>
