<svg width="171" height="48" viewBox="0 0 171 48" fill="none" xmlns="http://www.w3.org/2000/svg">
<g clip-path="url(#clip0_3_6044)">
<path d="M24.0138 48C28.2227 48.0006 32.3577 46.894 36.0038 44.7915C39.6499 42.6889 42.6788 39.6643 44.7866 36.0212C50.6774 24.5685 45.0121 12.2044 37.2704 8.00474C28.0162 2.9971 16.7514 4.3782 11.1236 12.7963C8.15476 17.2402 7.62864 24.39 10.7948 29.9237C9.67618 27.2447 9.38441 24.2923 9.95699 21.4461C10.5296 18.5999 11.9404 15.99 14.008 13.9519C14.4883 13.3912 15.0062 12.8638 15.5582 12.3735C25.254 4.50036 37.1671 10.4945 40.9252 18.0106C43.0549 22.5648 43.3658 27.7602 41.7943 32.5358C40.2228 37.3114 36.8875 41.307 32.4695 43.7064C26.0432 47.2954 17.2869 47.2484 10.5036 43.7064C14.4982 46.4605 19.2371 47.932 24.089 47.9249" fill="#0071BB"/>
<path d="M10.4382 12.3547C16.3478 3.50446 28.1106 2.16094 37.6185 7.30011C43.1992 10.3254 47.7089 17.3154 48.0096 25.2449C48.0096 24.8315 48.0096 24.4181 48.0096 24.0047C48.0071 17.6391 45.4772 11.5348 40.976 7.03363C36.4748 2.53242 30.3706 0.00255103 24.0049 6.10352e-05C12.881 6.10352e-05 3.56096 10.2596 3.4858 20.5661C3.42003 31.0605 10.598 40.1363 20.7166 40.794C23.334 40.8751 25.9353 40.3559 28.3211 39.2761C30.7069 38.1964 32.8139 36.5849 34.4805 34.565C31.9242 37.1356 28.4989 38.6574 24.8777 38.8312C21.2565 39.0051 17.7012 37.8184 14.9103 35.5045C6.61439 29.9425 6.22919 18.5931 10.41 12.3171" fill="#FFED00"/>
<path d="M21.7589 10.0153C23.8389 9.67373 25.9683 9.78809 27.9997 10.3504C30.0312 10.9128 31.9163 11.9097 33.5245 13.2723C35.1328 14.6348 36.4259 16.3305 37.3143 18.242C38.2028 20.1534 38.6654 22.2351 38.6702 24.343C38.6711 25.0063 38.624 25.6688 38.5293 26.3253C37.881 36.3218 28.1382 42.081 20.6785 41.5925C10.0619 40.8973 2.6397 31.3893 2.70546 20.5661C2.70546 13.7452 6.67022 6.95247 12.5046 2.91254C9.6925 4.44686 7.21548 6.52791 5.21922 9.03334C3.22296 11.5388 1.74774 14.418 0.880286 17.5018C0.0128333 20.5856 -0.229331 23.8117 0.168007 26.9904C0.565344 30.1692 1.59418 33.2364 3.19402 36.0118C8.74657 45.623 22.3414 47.953 31.2574 43.4528C40.5962 38.7552 44.6362 27.5373 40.1453 18.4334C37.3267 12.6553 29.4629 7.89197 21.7401 9.97771" fill="#E42313"/>
<path d="M57.4609 22.1069C56.9314 22.1121 56.4036 22.0458 55.8919 21.9097L56.0047 20.1434C56.4753 20.3368 56.9803 20.4327 57.4891 20.4252C58.034 20.4252 58.3628 20.2091 58.3628 19.8709C58.3628 18.828 55.751 19.4105 55.751 17.0523C55.751 15.7558 56.6905 14.6848 58.889 14.6848C59.3049 14.6933 59.7195 14.7341 60.1291 14.8069L60.0728 16.5168C59.6793 16.3853 59.2662 16.3218 58.8514 16.3289C58.2971 16.3289 58.034 16.545 58.034 16.8738C58.034 17.8133 60.6929 17.4187 60.6929 19.6924C60.6929 21.1956 59.4057 22.1163 57.4797 22.1163" fill="#0071BB"/>
<path d="M66.4986 21.9566C66.4921 21.5821 66.5204 21.2078 66.5832 20.8386C66.3454 21.2434 66.0023 21.576 65.5903 21.8011C65.1783 22.0261 64.7129 22.1351 64.2438 22.1163C62.656 22.1163 62.1299 21.0922 62.1299 19.8615V14.8726H64.3096V19.3823C64.3096 19.9554 64.4693 20.3218 64.9672 20.3218C65.7376 20.3218 66.3671 19.3823 66.3671 18.3394V14.9008H68.528V21.9942L66.4986 21.9566Z" fill="#0071BB"/>
<path d="M71.4218 14.0365C71.1694 14.0273 70.9254 13.944 70.72 13.7971C70.5146 13.6502 70.3569 13.4461 70.2667 13.2102C70.1764 12.9744 70.1575 12.7172 70.2124 12.4707C70.2672 12.2242 70.3933 11.9992 70.5751 11.8239C70.7568 11.6486 70.9861 11.5306 71.2345 11.4846C71.4828 11.4386 71.7391 11.4667 71.9716 11.5653C72.204 11.664 72.4024 11.8289 72.5418 12.0394C72.6813 12.2499 72.7558 12.4968 72.7559 12.7494C72.7485 13.0966 72.6041 13.4268 72.3541 13.6679C72.1042 13.909 71.7691 14.0415 71.4218 14.0365ZM70.332 14.8633H72.5023V21.9566H70.332V14.8633Z" fill="#0071BB"/>
<path d="M75.6968 22.1069C75.1782 22.0965 74.6632 22.0175 74.1653 21.872L74.2781 20.1057C74.7487 20.2992 75.2537 20.3951 75.7625 20.3876C76.3074 20.3876 76.6363 20.1715 76.6363 19.8332C76.6363 18.7904 74.0244 19.3729 74.0244 17.0147C74.0244 15.7181 74.9639 14.6471 77.1624 14.6471C77.5783 14.6556 77.993 14.6965 78.4026 14.7692L78.3368 16.4698C77.9398 16.3391 77.5239 16.2756 77.106 16.2818C76.5517 16.2818 76.2887 16.498 76.2887 16.8268C76.2887 17.7663 78.9475 17.3717 78.9475 19.6453C78.9475 21.1486 77.6604 22.0693 75.7343 22.0693" fill="#0071BB"/>
<path d="M81.6816 22.1069C81.1521 22.1121 80.6243 22.0458 80.1126 21.9097L80.2347 20.1434C80.7054 20.3368 81.2104 20.4327 81.7192 20.4252C82.2547 20.4252 82.5835 20.2091 82.5835 19.8709C82.5835 18.828 79.9717 19.4105 79.9717 17.0523C79.9717 15.7558 80.9112 14.6848 83.1097 14.6848C83.5287 14.6937 83.9464 14.7346 84.3592 14.8069L84.2841 16.5074C83.8871 16.3768 83.4711 16.3133 83.0533 16.3195C82.499 16.3195 82.2453 16.5356 82.2453 16.8644C82.2453 17.804 84.8948 17.4094 84.8948 19.683C84.8948 21.1862 83.6076 22.1069 81.6816 22.1069Z" fill="#0071BB"/>
<path d="M92.3637 18.9596H88.1453C88.1453 19.8991 88.7278 20.4252 89.8928 20.4252C90.623 20.4317 91.3465 20.2845 92.0161 19.9931L92.2322 21.6372C91.3831 21.9597 90.4816 22.1222 89.5733 22.1164C87.2621 22.1164 85.9844 20.9889 85.9844 18.4992C85.9844 16.3101 87.1964 14.7411 89.3948 14.7411C91.5933 14.7411 92.4765 16.1786 92.4765 18.0295C92.4711 18.3439 92.446 18.6577 92.4013 18.969M89.3009 16.235C88.9844 16.2496 88.6862 16.3876 88.4702 16.6194C88.2542 16.8512 88.1376 17.1584 88.1453 17.4752H90.2968C90.2968 16.6672 89.921 16.235 89.3009 16.235Z" fill="#0071BB"/>
<path d="M96.4136 22.1069C94.7788 22.1069 94.2527 21.5714 94.2527 19.8239V16.5356H93.1816V14.8632H94.2527V12.7681L96.4324 12.1762V14.8632H97.9638V16.5356H96.4324V19.3541C96.4324 20.087 96.6203 20.2937 97.1652 20.2937C97.4127 20.2882 97.6587 20.2535 97.898 20.1903L98.0296 21.8908C97.5006 22.0214 96.9584 22.0907 96.4136 22.0975" fill="#0071BB"/>
<path d="M105.433 18.9596H101.214C101.214 19.8991 101.797 20.4252 102.962 20.4252C103.68 20.4235 104.39 20.2732 105.047 19.9837L105.263 21.6278C104.414 21.9503 103.513 22.1128 102.605 22.107C100.303 22.107 99.0156 20.9795 99.0156 18.4898C99.0156 16.3007 100.228 14.7318 102.426 14.7318C104.625 14.7318 105.508 16.1692 105.508 18.0201C105.502 18.3345 105.477 18.6483 105.433 18.9596ZM102.351 16.235C102.034 16.2496 101.736 16.3876 101.52 16.6194C101.304 16.8512 101.188 17.1584 101.195 17.4752H103.347C103.347 16.6672 102.98 16.235 102.351 16.235Z" fill="#0071BB"/>
<path d="M109.868 22.107C107.707 22.107 106.607 20.9138 106.607 18.6307C106.607 16.3477 107.754 14.7036 110.319 14.7036C110.809 14.7066 111.297 14.7826 111.765 14.929L111.437 16.8081C111.082 16.6498 110.698 16.5666 110.309 16.5638C109.37 16.5638 108.881 17.2966 108.881 18.4428C108.881 19.5891 109.332 20.1903 110.309 20.1903C110.719 20.1998 111.126 20.1196 111.502 19.9555L111.765 21.7781C111.16 21.9839 110.525 22.0886 109.886 22.0882" fill="#0071BB"/>
<path d="M120.146 21.9566C120.139 21.6143 120.158 21.272 120.202 20.9325C119.992 21.3198 119.677 21.6399 119.293 21.8559C118.909 22.072 118.472 22.1753 118.032 22.1538C117.753 22.1723 117.474 22.1305 117.213 22.0313C116.952 21.9321 116.715 21.7779 116.519 21.5791C116.323 21.3803 116.172 21.1416 116.077 20.8793C115.981 20.6169 115.943 20.3371 115.965 20.0587C115.965 18.2737 117.628 17.5502 119.958 17.5502V17.1744C119.958 16.5919 119.629 16.31 118.69 16.31C118.013 16.3287 117.347 16.4887 116.736 16.7798L116.36 15.0793C117.23 14.7943 118.14 14.6453 119.056 14.6377C121.452 14.6377 122.138 15.5772 122.138 17.1086V20.2278C122.138 20.7446 122.138 21.3553 122.194 21.919L120.146 21.9566ZM119.949 18.8749C118.417 18.8749 118.004 19.2601 118.004 19.8145C118.002 19.9066 118.02 19.998 118.056 20.0828C118.092 20.1676 118.145 20.244 118.212 20.3069C118.28 20.3697 118.36 20.4178 118.447 20.4479C118.534 20.478 118.626 20.4894 118.718 20.4815C119.06 20.4645 119.382 20.3126 119.613 20.0591C119.843 19.8055 119.964 19.471 119.949 19.1286V18.8749Z" fill="#0071BB"/>
<path d="M127.793 21.9566C127.784 21.5986 127.803 21.2405 127.85 20.8855C127.641 21.2735 127.326 21.5943 126.942 21.8105C126.557 22.0267 126.12 22.1294 125.68 22.1069C125.401 22.1253 125.122 22.0835 124.861 21.9843C124.6 21.8852 124.363 21.7309 124.167 21.5322C123.971 21.3334 123.82 21.0947 123.724 20.8323C123.628 20.57 123.59 20.2901 123.613 20.0117C123.613 18.2267 125.276 17.5032 127.606 17.5032V17.1744C127.606 16.5919 127.277 16.31 126.337 16.31C125.66 16.3287 124.995 16.4887 124.383 16.7798L124.007 15.0793C124.878 14.795 125.788 14.6461 126.704 14.6377C129.099 14.6377 129.785 15.5772 129.785 17.1086V20.2278C129.785 20.7446 129.785 21.3553 129.842 21.919L127.793 21.9566ZM127.596 18.8749C126.065 18.8749 125.651 19.2601 125.651 19.8145C125.65 19.9066 125.667 19.998 125.703 20.0828C125.739 20.1676 125.793 20.244 125.86 20.3069C125.927 20.3697 126.007 20.4178 126.094 20.4479C126.181 20.478 126.274 20.4894 126.365 20.4815C126.708 20.4645 127.029 20.3126 127.26 20.0591C127.491 19.8055 127.611 19.471 127.596 19.1286V18.8749Z" fill="#0071BB"/>
<path d="M135.61 16.8456C134.426 16.5732 133.797 17.259 133.797 19.0253V21.9566H131.636V14.8633H133.656C133.652 15.2814 133.621 15.6988 133.562 16.1128C133.714 15.678 134.003 15.3045 134.386 15.0486C134.769 14.7927 135.225 14.6683 135.685 14.6941L135.61 16.8456Z" fill="#0071BB"/>
<path d="M139.321 25.4892C137.385 25.4892 136.239 24.794 136.239 23.3847C136.258 23.0431 136.363 22.7117 136.543 22.4211C136.724 22.1305 136.975 21.89 137.273 21.7218C137.064 21.625 136.888 21.4695 136.766 21.2743C136.644 21.0791 136.582 20.8526 136.587 20.6226C136.589 20.3446 136.672 20.0733 136.826 19.8415C136.979 19.6097 137.196 19.4274 137.451 19.3166C137.117 19.132 136.841 18.859 136.652 18.5276C136.463 18.1961 136.369 17.8189 136.38 17.4376C136.38 15.9813 137.451 14.7318 139.612 14.7318C140.031 14.7326 140.448 14.7894 140.852 14.9009H143.267V16.6108H142.449C142.589 16.7899 142.659 17.0135 142.647 17.2403C142.647 18.7811 141.623 19.777 139.584 19.777C139.44 19.7909 139.295 19.7909 139.152 19.777C139.082 19.8093 139.022 19.8592 138.978 19.9218C138.933 19.9844 138.906 20.0576 138.898 20.134C138.898 20.4346 139.114 20.4722 139.913 20.5004L140.852 20.5474C142.384 20.6037 143.295 21.2332 143.295 22.6519C143.295 24.0706 141.754 25.5644 139.311 25.5644M140.251 22.2009H139.124C139.039 22.2009 138.917 22.2009 138.851 22.2009C138.708 22.3021 138.589 22.4338 138.503 22.5865C138.417 22.7392 138.366 22.9092 138.353 23.0841C138.353 23.6196 138.823 23.9766 139.622 23.9766C140.636 23.9766 141.144 23.5444 141.144 22.9901C141.144 22.5861 140.909 22.2761 140.251 22.2479M139.509 16.3853C139.371 16.3669 139.23 16.3794 139.097 16.4219C138.965 16.4645 138.843 16.536 138.742 16.6313C138.64 16.7267 138.561 16.8434 138.51 16.9731C138.459 17.1028 138.438 17.2422 138.447 17.3812C138.434 17.5935 138.485 17.8048 138.593 17.9878C138.702 18.1709 138.862 18.3171 139.055 18.4077C139.247 18.4982 139.463 18.5288 139.673 18.4956C139.883 18.4624 140.078 18.3668 140.233 18.2213C140.388 18.0757 140.496 17.887 140.543 17.6795C140.589 17.4719 140.572 17.2552 140.494 17.0574C140.416 16.8595 140.281 16.6896 140.105 16.5698C139.929 16.45 139.721 16.3857 139.509 16.3853Z" fill="#0071BB"/>
<path d="M148.387 21.9566C148.378 21.5986 148.397 21.2405 148.444 20.8855C148.234 21.2735 147.919 21.5943 147.535 21.8105C147.151 22.0267 146.714 22.1294 146.273 22.1069C145.995 22.1253 145.715 22.0835 145.454 21.9843C145.193 21.8852 144.957 21.7309 144.761 21.5322C144.564 21.3334 144.413 21.0947 144.318 20.8323C144.222 20.57 144.184 20.2901 144.206 20.0117C144.206 18.2267 145.869 17.5032 148.199 17.5032V17.1744C148.199 16.5919 147.87 16.31 146.931 16.31C146.254 16.3287 145.588 16.4887 144.977 16.7798L144.601 15.0793C145.472 14.795 146.381 14.6461 147.297 14.6377C149.693 14.6377 150.379 15.5772 150.379 17.1086V20.2278C150.379 20.7446 150.379 21.3553 150.445 21.919L148.387 21.9566ZM148.19 18.8749C146.659 18.8749 146.245 19.2601 146.245 19.8145C146.243 19.9066 146.261 19.998 146.297 20.0828C146.333 20.1676 146.386 20.244 146.454 20.3069C146.521 20.3697 146.601 20.4178 146.688 20.4479C146.775 20.478 146.867 20.4894 146.959 20.4815C147.301 20.4645 147.623 20.3126 147.854 20.0591C148.084 19.8055 148.205 19.471 148.19 19.1286V18.8749Z" fill="#0071BB"/>
<path d="M156.646 21.9566C156.644 21.5823 156.673 21.2084 156.731 20.8386C156.494 21.2441 156.151 21.5773 155.738 21.8024C155.326 22.0276 154.861 22.1361 154.391 22.1163C152.803 22.1163 152.277 21.0922 152.277 19.8615V14.8726H154.466V19.3823C154.466 19.9554 154.617 20.3218 155.115 20.3218C155.894 20.3218 156.515 19.3823 156.515 18.3394V14.9008H158.722V21.9942L156.646 21.9566Z" fill="#0071BB"/>
<path d="M58.3255 32.9677C57.9627 32.9989 57.5975 32.9506 57.2552 32.8264C56.9129 32.7022 56.6018 32.5049 56.3434 32.2483C56.0851 31.9917 55.8856 31.682 55.759 31.3406C55.6324 30.9992 55.5817 30.6343 55.6103 30.2713C55.597 29.8828 55.6641 29.4958 55.8076 29.1345C55.951 28.7733 56.1676 28.4456 56.4438 28.172C56.72 27.8985 57.0497 27.6851 57.4124 27.5451C57.775 27.4052 58.1627 27.3417 58.551 27.3588C59.0639 27.3636 59.5734 27.4427 60.0636 27.5937L59.8945 28.2701C59.4453 28.0941 58.9677 28.0018 58.4852 27.9977C58.1996 27.9856 57.9147 28.035 57.6497 28.1423C57.3847 28.2496 57.1459 28.4125 56.9491 28.6199C56.7524 28.8274 56.6024 29.0745 56.5092 29.3448C56.416 29.6151 56.3818 29.9022 56.4089 30.1868C56.3698 30.4662 56.3941 30.7509 56.4801 31.0197C56.5661 31.2885 56.7115 31.5344 56.9055 31.7393C57.0996 31.9442 57.3373 32.1027 57.601 32.2032C57.8647 32.3036 58.1477 32.3433 58.4288 32.3195C58.7479 32.3186 59.0649 32.2679 59.3684 32.1691V30.1116H60.1012V32.6483C59.5263 32.8589 58.9189 32.967 58.3067 32.9677" fill="#0071BB"/>
<path d="M64.4881 30.8633H61.8669C61.8669 31.9156 62.2709 32.3759 63.1352 32.3759C63.5302 32.3757 63.9207 32.2925 64.2814 32.1317L64.3848 32.7142C63.9409 32.8838 63.4694 32.9697 62.9943 32.9678C61.7729 32.9678 61.1152 32.3195 61.1152 30.9009C61.1152 29.6983 61.7635 28.8058 62.9097 28.8058C63.1312 28.7905 63.3533 28.8242 63.5603 28.9044C63.7672 28.9846 63.954 29.1094 64.1073 29.27C64.2606 29.4305 64.3768 29.6227 64.4474 29.8332C64.5181 30.0436 64.5417 30.267 64.5163 30.4875C64.5236 30.6127 64.5236 30.7381 64.5163 30.8633M62.8909 29.3319C62.6275 29.3415 62.378 29.4524 62.1942 29.6414C62.0105 29.8304 61.9067 30.083 61.9045 30.3465H63.7835C63.8037 30.2152 63.7939 30.0809 63.755 29.9538C63.716 29.8267 63.6489 29.71 63.5586 29.6125C63.4683 29.515 63.3571 29.439 63.2334 29.3905C63.1096 29.3419 62.9765 29.3219 62.844 29.3319" fill="#0071BB"/>
<path d="M66.9592 32.949C66.4937 32.96 66.0289 32.9062 65.5781 32.7892V26.9924H66.3016V28.9372C66.3064 29.1898 66.2812 29.4422 66.2264 29.6888C66.3263 29.4204 66.5079 29.1899 66.7454 29.0299C66.983 28.8698 67.2648 28.7881 67.5511 28.7963C68.4906 28.7963 69.0356 29.454 69.0356 30.6753C69.0716 30.9664 69.0434 31.2618 68.9532 31.5408C68.8629 31.8199 68.7127 32.0758 68.5131 32.2906C68.3135 32.5055 68.0693 32.6741 67.7976 32.7845C67.5259 32.895 67.2334 32.9447 66.9404 32.9302M67.382 29.3788C66.6586 29.3788 66.2828 30.2338 66.2828 30.929V32.2631C66.5144 32.3316 66.7553 32.3633 66.9968 32.3571C67.7672 32.3571 68.2746 31.8967 68.2746 30.7411C68.2746 29.8767 67.9927 29.3788 67.382 29.3788Z" fill="#0071BB"/>
<path d="M72.2304 32.8926C72.2103 32.6268 72.2103 32.3598 72.2304 32.094C72.1156 32.3604 71.9235 32.5861 71.6789 32.7419C71.4343 32.8977 71.1486 32.9764 70.8587 32.9678C70.7127 32.977 70.5663 32.9556 70.429 32.9051C70.2917 32.8546 70.1665 32.7759 70.0612 32.6743C69.956 32.5726 69.8732 32.4501 69.818 32.3146C69.7628 32.1791 69.7365 32.0336 69.7407 31.8873C69.7407 31.0136 70.6238 30.4968 72.1646 30.4968V30.2338C72.1646 29.6795 71.9391 29.3694 71.2815 29.3694C70.8749 29.3766 70.4757 29.4796 70.1165 29.6701L69.9661 29.0782C70.4206 28.8965 70.9048 28.8009 71.3942 28.7963C72.5592 28.7963 72.8881 29.3318 72.8881 30.121V31.737C72.8881 32.1128 72.8881 32.545 72.8881 32.8926H72.2304ZM70.6896 28.0353C70.5749 28.0353 70.465 27.9898 70.384 27.9087C70.3029 27.8277 70.2574 27.7178 70.2574 27.6031C70.2574 27.4885 70.3029 27.3786 70.384 27.2975C70.465 27.2165 70.5749 27.171 70.6896 27.171C70.8042 27.171 70.9141 27.2165 70.9952 27.2975C71.0762 27.3786 71.1218 27.4885 71.1218 27.6031C71.1218 27.7178 71.0762 27.8277 70.9952 27.9087C70.9141 27.9898 70.8042 28.0353 70.6896 28.0353ZM72.1928 31.0136C70.8681 31.0136 70.4829 31.3706 70.4829 31.7746C70.4788 31.8571 70.4921 31.9395 70.5219 32.0166C70.5516 32.0936 70.5971 32.1636 70.6555 32.222C70.7139 32.2804 70.7839 32.326 70.861 32.3557C70.9381 32.3854 71.0205 32.3987 71.103 32.3947C71.4145 32.3637 71.7019 32.2133 71.9051 31.9752C72.1082 31.737 72.2113 31.4294 72.1928 31.1169V31.0136ZM72.2398 28.0353C72.1252 28.0353 72.0152 27.9898 71.9342 27.9087C71.8531 27.8277 71.8076 27.7178 71.8076 27.6031C71.8076 27.4885 71.8531 27.3786 71.9342 27.2975C72.0152 27.2165 72.1252 27.171 72.2398 27.171C72.3544 27.171 72.4643 27.2165 72.5454 27.2975C72.6264 27.3786 72.672 27.4885 72.672 27.6031C72.672 27.7178 72.6264 27.8277 72.5454 27.9087C72.4643 27.9898 72.3544 28.0353 72.2398 28.0353Z" fill="#0071BB"/>
<path d="M76.8719 32.8926C76.8751 32.6096 76.8971 32.3271 76.9377 32.047C76.8277 32.3294 76.6335 32.5711 76.3813 32.7392C76.1292 32.9073 75.8314 32.9937 75.5284 32.9866C74.5889 32.9866 74.3164 32.4134 74.3164 31.6994V28.8809H75.0398V31.4739C75.0398 32.047 75.1996 32.4135 75.7257 32.4135C76.3927 32.4135 76.8719 31.737 76.8719 30.8444V28.9184H77.5953V32.9396L76.8719 32.8926Z" fill="#0071BB"/>
<path d="M81.3714 32.8926C81.3703 32.6188 81.3923 32.3454 81.4372 32.0752C81.3351 32.3516 81.1506 32.5899 80.9086 32.758C80.6666 32.926 80.3789 33.0157 80.0842 33.0147C79.0978 33.0147 78.5998 32.2913 78.5998 31.1357C78.5656 30.8458 78.5947 30.5519 78.6851 30.2743C78.7754 29.9967 78.9248 29.7419 79.1231 29.5276C79.3213 29.3133 79.5636 29.1445 79.8334 29.0329C80.1031 28.9212 80.3938 28.8694 80.6856 28.8809C80.9118 28.8834 81.1376 28.8991 81.362 28.9279V27.0488H82.0854V32.949L81.3714 32.8926ZM81.3714 29.4822C81.1385 29.4198 80.8985 29.3882 80.6574 29.3882C79.887 29.3882 79.3796 29.8486 79.3796 31.0136C79.3796 31.878 79.6615 32.3665 80.3191 32.3665C80.9768 32.3665 81.4184 31.5209 81.4184 30.8163L81.3714 29.4822Z" fill="#0071BB"/>
<path d="M86.4735 30.8633H83.8522C83.8522 31.9156 84.2656 32.3759 85.1205 32.3759C85.5155 32.3757 85.906 32.2925 86.2668 32.1317L86.3701 32.7142C85.9264 32.8846 85.4549 32.9706 84.9796 32.9678C83.7582 32.9678 83.1006 32.3195 83.1006 30.9009C83.1006 29.6983 83.7489 28.8058 84.8951 28.8058C85.1165 28.7905 85.3386 28.8242 85.5456 28.9044C85.7525 28.9846 85.9393 29.1094 86.0926 29.27C86.246 29.4305 86.3621 29.6227 86.4328 29.8332C86.5035 30.0436 86.527 30.267 86.5016 30.4875C86.5089 30.6127 86.5089 30.7381 86.5016 30.8633M84.8857 29.3319C84.6222 29.3415 84.3727 29.4524 84.1889 29.6414C84.0052 29.8304 83.9014 30.083 83.8992 30.3465H85.7782C85.7984 30.2152 85.7886 30.0809 85.7497 29.9538C85.7108 29.8267 85.6436 29.71 85.5533 29.6125C85.463 29.515 85.3518 29.439 85.2281 29.3905C85.1044 29.3419 84.9712 29.3219 84.8387 29.3319" fill="#0071BB"/>
<path d="M88.7943 32.9583C87.9769 32.9583 87.7233 32.6201 87.7233 31.7558V29.4446H86.8965V28.8715H87.7233V27.5749L88.4467 27.3682V28.8715H89.5741V29.4446H88.4467V31.4927C88.4467 32.1598 88.5688 32.3383 89.0198 32.3383C89.1941 32.3374 89.3676 32.3153 89.5365 32.2725L89.6117 32.8644C89.3433 32.9245 89.0693 32.956 88.7943 32.9583Z" fill="#0071BB"/>
<path d="M93.5857 30.8633H90.955C90.955 31.9156 91.3684 32.3759 92.2234 32.3759C92.6184 32.3757 93.0089 32.2925 93.3696 32.1317L93.4824 32.7142C93.0385 32.8838 92.567 32.9698 92.0919 32.9678C90.8705 32.9678 90.2128 32.3195 90.2128 30.9009C90.1828 30.6436 90.2064 30.3829 90.282 30.1351C90.3576 29.8873 90.4836 29.6578 90.6521 29.4611C90.8206 29.2643 91.028 29.1046 91.2612 28.9918C91.4944 28.879 91.7484 28.8157 92.0073 28.8058C92.2295 28.7891 92.4527 28.8217 92.6608 28.9012C92.869 28.9808 93.0569 29.1054 93.2113 29.2661C93.3657 29.4268 93.4827 29.6196 93.5539 29.8307C93.6251 30.0419 93.6488 30.2661 93.6233 30.4875C93.6306 30.6127 93.6306 30.7382 93.6233 30.8633M92.0167 29.3319C91.7483 29.3293 91.4896 29.4322 91.2963 29.6185C91.103 29.8048 90.9906 30.0595 90.9832 30.3278H92.8623C92.8832 30.2002 92.8756 30.0696 92.8399 29.9454C92.8043 29.8211 92.7415 29.7063 92.6561 29.6092C92.5707 29.5122 92.4649 29.4353 92.3462 29.384C92.2275 29.3328 92.0989 29.3086 91.9697 29.3131" fill="#0071BB"/>
<path d="M96.0753 32.9584C95.1357 32.9584 94.3184 32.4981 94.3184 31.0136C94.3184 29.7265 94.976 28.8057 96.2725 28.8057C96.6087 28.8044 96.9425 28.8616 97.259 28.9749L97.1181 29.6043C96.82 29.4817 96.5009 29.4179 96.1786 29.4164C95.4458 29.4164 95.0512 30.0365 95.0512 30.9197C95.0512 31.8028 95.3049 32.3289 96.1974 32.3289C96.5215 32.3351 96.8427 32.2677 97.1369 32.1317L97.2497 32.7423C96.8678 32.8841 96.4638 32.9572 96.0564 32.9584" fill="#0071BB"/>
<path d="M100.745 32.8926V30.3277C100.745 29.7452 100.585 29.3881 100.05 29.3881C99.5142 29.3881 98.9129 30.074 98.9129 30.9571V32.8831H98.1895V26.983H98.9129V28.862C98.9181 29.1302 98.8929 29.3981 98.8377 29.6606C98.9436 29.3774 99.1356 29.1344 99.3867 28.9659C99.6378 28.7974 99.9353 28.7118 100.238 28.7211C101.177 28.7211 101.45 29.2942 101.45 29.9988V32.8174L100.745 32.8926Z" fill="#0071BB"/>
<path d="M105.395 32.8926V30.3277C105.395 29.7452 105.236 29.3882 104.7 29.3882C104.165 29.3882 103.563 30.0741 103.563 30.9572V32.8832H102.84V28.8621H103.535C103.541 29.1485 103.519 29.4349 103.469 29.717C103.58 29.4331 103.776 29.1903 104.03 29.0221C104.284 28.8539 104.583 28.7684 104.888 28.7775C105.828 28.7775 106.1 29.3506 106.1 30.0552V32.8738L105.395 32.8926Z" fill="#0071BB"/>
<path d="M107.847 28.0728C107.785 28.0741 107.723 28.0629 107.665 28.0398C107.607 28.0168 107.554 27.9823 107.509 27.9386C107.464 27.8948 107.429 27.8426 107.405 27.785C107.381 27.7274 107.368 27.6656 107.368 27.6031C107.397 27.501 107.459 27.4112 107.544 27.3472C107.628 27.2833 107.732 27.2487 107.838 27.2487C107.944 27.2487 108.047 27.2833 108.132 27.3472C108.217 27.4112 108.279 27.501 108.308 27.6031C108.306 27.666 108.293 27.7281 108.268 27.7857C108.242 27.8434 108.206 27.8955 108.161 27.9392C108.115 27.9828 108.062 28.017 108.003 28.04C107.945 28.0629 107.882 28.0741 107.819 28.0728M107.453 28.8714H108.186V32.8926H107.453V28.8714Z" fill="#0071BB"/>
<path d="M111.802 32.8926L110.318 30.8257V32.8926H109.585V26.9924H110.318V30.6378L111.727 28.8715H112.61L111.069 30.7129L112.732 32.8926H111.802Z" fill="#0071BB"/>
<path d="M114.715 30.2713H112.808V30.8726H114.715V30.2713Z" fill="#0071BB"/>
<path d="M118.154 32.9677C117.791 32.9989 117.426 32.9506 117.083 32.8264C116.741 32.7022 116.43 32.5049 116.172 32.2483C115.913 31.9917 115.714 31.682 115.587 31.3406C115.461 30.9992 115.41 30.6343 115.438 30.2713C115.425 29.8828 115.492 29.4958 115.636 29.1345C115.779 28.7733 115.996 28.4456 116.272 28.172C116.548 27.8985 116.878 27.6851 117.24 27.5451C117.603 27.4052 117.991 27.3417 118.379 27.3588C118.892 27.3628 119.402 27.4419 119.892 27.5937L119.723 28.2701C119.273 28.0941 118.796 28.0018 118.313 27.9977C118.028 27.9856 117.743 28.035 117.478 28.1423C117.213 28.2496 116.974 28.4125 116.777 28.6199C116.581 28.8274 116.43 29.0745 116.337 29.3448C116.244 29.6151 116.21 29.9022 116.237 30.1868C116.198 30.4662 116.222 30.7509 116.308 31.0197C116.394 31.2885 116.54 31.5344 116.734 31.7393C116.928 31.9442 117.165 32.1027 117.429 32.2032C117.693 32.3036 117.976 32.3433 118.257 32.3195C118.576 32.3194 118.893 32.2686 119.196 32.1691V30.1116H119.939V32.6483C119.36 32.8581 118.75 32.9662 118.135 32.9677" fill="#0071BB"/>
<path d="M124.317 30.8633H121.696C121.696 31.9156 122.1 32.3759 122.964 32.3759C123.359 32.3757 123.75 32.2925 124.11 32.1317L124.214 32.7142C123.77 32.8838 123.298 32.9698 122.823 32.9678C121.602 32.9678 120.944 32.3195 120.944 30.9009C120.914 30.6436 120.938 30.3829 121.013 30.1351C121.089 29.8873 121.215 29.6578 121.384 29.4611C121.552 29.2643 121.759 29.1046 121.993 28.9918C122.226 28.879 122.48 28.8157 122.739 28.8058C122.961 28.7891 123.184 28.8217 123.392 28.9012C123.6 28.9808 123.788 29.1054 123.943 29.2661C124.097 29.4268 124.214 29.6196 124.285 29.8307C124.357 30.0419 124.38 30.2661 124.355 30.4875C124.362 30.6127 124.362 30.7382 124.355 30.8633M122.739 29.3319C122.475 29.3416 122.226 29.4524 122.042 29.6414C121.858 29.8304 121.754 30.083 121.752 30.3466H123.631C123.651 30.2152 123.642 30.0809 123.603 29.9538C123.564 29.8267 123.497 29.71 123.406 29.6125C123.316 29.515 123.205 29.4391 123.081 29.3905C122.957 29.3419 122.824 29.3219 122.692 29.3319" fill="#0071BB"/>
<path d="M127.963 32.8926V30.3277C127.963 29.7452 127.803 29.3882 127.277 29.3882C126.751 29.3882 126.131 30.0741 126.131 30.9572V32.8832H125.407V28.8621H126.112C126.113 29.1484 126.091 29.4343 126.046 29.717C126.157 29.4331 126.352 29.1903 126.606 29.0221C126.86 28.8539 127.16 28.7684 127.465 28.7775C128.404 28.7775 128.677 29.3506 128.677 30.0552V32.8738L127.963 32.8926Z" fill="#0071BB"/>
<path d="M131.476 32.9677C130.386 32.9677 129.672 32.3383 129.672 30.9196C129.649 30.6496 129.682 30.3776 129.77 30.1211C129.857 29.8646 129.998 29.6293 130.182 29.4302C130.366 29.2312 130.589 29.0728 130.838 28.9652C131.087 28.8577 131.356 28.8033 131.627 28.8057C132.66 28.8057 133.44 29.3694 133.44 30.8162C133.462 31.0886 133.427 31.3625 133.339 31.621C133.251 31.8794 133.11 32.117 132.926 32.3188C132.742 32.5206 132.518 32.6823 132.268 32.794C132.019 32.9056 131.749 32.9648 131.476 32.9677ZM131.561 29.407C130.978 29.407 130.433 29.8485 130.433 30.8444C130.433 31.8403 130.828 32.3476 131.561 32.3476C132.294 32.3476 132.679 31.8779 132.679 30.8538C132.679 29.8297 132.322 29.3882 131.57 29.3882" fill="#0071BB"/>
<path d="M135.103 32.9678C134.805 32.971 134.508 32.9331 134.22 32.8551L134.295 32.2068C134.577 32.3129 134.877 32.367 135.178 32.3665C135.704 32.3665 136.052 32.1316 136.052 31.7558C136.052 30.8163 134.173 31.4082 134.173 29.9989C134.173 29.3131 134.699 28.7963 135.77 28.7963C136.032 28.7981 136.293 28.8232 136.55 28.8715L136.493 29.4728C136.239 29.3889 135.972 29.3476 135.704 29.3506C135.169 29.3506 134.924 29.5761 134.924 29.9238C134.924 30.8163 136.804 30.2996 136.804 31.6712C136.804 32.4041 136.155 32.9584 135.103 32.9584" fill="#0071BB"/>
<path d="M138.541 32.9678C138.243 32.9716 137.946 32.9337 137.658 32.855L137.714 32.2162C138 32.3224 138.302 32.3765 138.607 32.3759C139.124 32.3759 139.481 32.141 139.481 31.7652C139.481 30.8257 137.602 31.4176 137.602 30.0083C137.602 29.3225 138.137 28.8057 139.208 28.8057C139.467 28.8079 139.724 28.8331 139.979 28.8809L139.922 29.4822C139.671 29.3983 139.407 29.357 139.142 29.36C138.607 29.36 138.353 29.5855 138.353 29.9331C138.353 30.8257 140.232 30.309 140.232 31.6806C140.232 32.4135 139.584 32.9678 138.532 32.9678" fill="#0071BB"/>
<path d="M144.357 30.8633H141.727C141.727 31.9156 142.14 32.3759 142.995 32.3759C143.393 32.3756 143.786 32.2925 144.15 32.1317L144.254 32.7142C143.81 32.8838 143.339 32.9698 142.863 32.9678C141.642 32.9678 140.984 32.3195 140.984 30.9009C140.954 30.6436 140.978 30.3829 141.053 30.1351C141.129 29.8873 141.255 29.6578 141.424 29.4611C141.592 29.2643 141.799 29.1046 142.033 28.9918C142.266 28.879 142.52 28.8157 142.779 28.8058C143.001 28.7891 143.224 28.8217 143.432 28.9012C143.64 28.9808 143.828 29.1054 143.983 29.2661C144.137 29.4268 144.254 29.6196 144.325 29.8307C144.397 30.0419 144.42 30.2661 144.395 30.4875C144.402 30.6127 144.402 30.7382 144.395 30.8633M142.751 29.3319C142.487 29.3416 142.238 29.4524 142.054 29.6414C141.87 29.8304 141.766 30.083 141.764 30.3466H143.643C143.664 30.219 143.656 30.0884 143.621 29.9641C143.585 29.8399 143.522 29.7251 143.437 29.628C143.352 29.531 143.246 29.4541 143.127 29.4029C143.008 29.3516 142.88 29.3274 142.751 29.3319Z" fill="#0071BB"/>
<path d="M147.993 32.8926V30.3277C147.993 29.7452 147.843 29.3882 147.307 29.3882C146.772 29.3882 146.17 30.0741 146.17 30.9572V32.8832H145.438V28.8621H146.142C146.148 29.1485 146.126 29.4349 146.076 29.717C146.187 29.4331 146.383 29.1903 146.637 29.0221C146.891 28.8539 147.191 28.7684 147.495 28.7775C148.435 28.7775 148.707 29.3506 148.707 30.0552V32.8738L147.993 32.8926Z" fill="#0071BB"/>
<path d="M150.736 32.9678C150.435 32.9709 150.135 32.933 149.844 32.855L149.91 32.2162C150.195 32.3224 150.497 32.3765 150.802 32.3759C151.319 32.3759 151.676 32.141 151.676 31.7652C151.676 30.8257 149.797 31.4176 149.797 30.0083C149.797 29.3225 150.332 28.8057 151.403 28.8057C151.662 28.8079 151.92 28.8331 152.174 28.8809L152.117 29.4822C151.866 29.3983 151.603 29.357 151.338 29.36C150.802 29.36 150.548 29.5855 150.548 29.9331C150.548 30.8257 152.428 30.309 152.428 31.6806C152.428 32.4135 151.779 32.9678 150.727 32.9678" fill="#0071BB"/>
<path d="M154.965 32.9584C154.025 32.9584 153.198 32.498 153.198 31.0136C153.198 29.7264 153.865 28.8057 155.152 28.8057C155.489 28.8028 155.823 28.86 156.139 28.9748L156.007 29.6043C155.709 29.4819 155.39 29.4181 155.068 29.4164C154.344 29.4164 153.95 30.0365 153.95 30.9196C153.95 31.8028 154.204 32.3289 155.087 32.3289C155.411 32.3335 155.731 32.2661 156.026 32.1316L156.139 32.7423C155.757 32.8841 155.353 32.9572 154.946 32.9584" fill="#0071BB"/>
<path d="M159.596 32.8926V30.3277C159.596 29.7452 159.445 29.3881 158.91 29.3881C158.374 29.3881 157.773 30.074 157.773 30.9571V32.8831H157.04V26.983H157.782V28.862C157.787 29.1302 157.762 29.3981 157.707 29.6606C157.812 29.3765 158.003 29.1328 158.255 28.9641C158.506 28.7953 158.804 28.7103 159.107 28.7211C160.047 28.7211 160.319 29.2942 160.319 29.9988V32.8174L159.596 32.8926Z" fill="#0071BB"/>
<path d="M163.833 32.8926C163.823 32.6256 163.839 32.3582 163.88 32.094C163.765 32.3604 163.573 32.5861 163.328 32.7419C163.084 32.8977 162.798 32.9764 162.508 32.9678C162.362 32.9772 162.215 32.9556 162.078 32.9044C161.94 32.8532 161.815 32.7736 161.71 32.6708C161.606 32.5679 161.524 32.4441 161.47 32.3075C161.417 32.1709 161.393 32.0245 161.4 31.8779C161.4 31.0136 162.273 30.4969 163.814 30.4969V30.2338C163.814 29.6795 163.598 29.3694 162.931 29.3694C162.525 29.379 162.126 29.4818 161.766 29.6701L161.616 29.0782C162.07 28.8965 162.554 28.8009 163.044 28.7963C164.209 28.7963 164.547 29.3319 164.547 30.1211V31.737C164.547 32.1128 164.547 32.545 164.547 32.8926H163.833ZM163.833 31.0136C162.508 31.0136 162.132 31.3706 162.132 31.7746C162.127 31.8566 162.139 31.9389 162.168 32.0159C162.196 32.093 162.241 32.1631 162.299 32.2217C162.356 32.2802 162.426 32.3259 162.502 32.3558C162.579 32.3856 162.661 32.3989 162.743 32.3947C163.056 32.366 163.344 32.2163 163.548 31.9776C163.752 31.7388 163.854 31.43 163.833 31.1169V31.0136Z" fill="#0071BB"/>
<path d="M168.24 27.6219C168.048 27.5605 167.848 27.5319 167.648 27.5374C167.075 27.5374 166.83 27.8568 166.83 28.5709V28.8715H167.948V29.4446H166.83V32.8927H166.097V29.4446H165.299V28.8715H166.116V28.5709C166.116 27.4716 166.661 26.9455 167.666 26.9455C167.887 26.9436 168.108 26.9657 168.324 27.0113L168.24 27.6219Z" fill="#0071BB"/>
<path d="M169.799 32.9583C168.982 32.9583 168.728 32.6201 168.728 31.7558V29.4446H167.901V28.8715H168.728V27.5749L169.452 27.3682V28.8715H170.579V29.4446H169.452V31.4927C169.452 32.1598 169.574 32.3383 170.025 32.3383C170.199 32.3374 170.372 32.3153 170.541 32.2725L170.617 32.8644C170.348 32.9245 170.074 32.956 169.799 32.9583Z" fill="#0071BB"/>
</g>
<defs>
<clipPath id="clip0_3_6044">
<rect width="170.617" height="48" fill="white"/>
</clipPath>
</defs>
</svg>
