<svg width="167" height="48" viewBox="0 0 167 48" fill="none" xmlns="http://www.w3.org/2000/svg">
<circle cx="22.6" cy="24.2499" r="20.5" stroke="#6927DA" stroke-width="3"/>
<path d="M30.7317 32.3817C26.5923 36.5211 21.9028 39.2233 17.7264 40.2972C13.5123 41.3809 10.1157 40.7571 8.10429 38.7457C6.09288 36.7343 5.46909 33.3376 6.55271 29.1235C7.62664 24.9472 10.3289 20.2577 14.4682 16.1183C18.6076 11.9789 23.2972 9.27665 27.4735 8.20273C31.6876 7.1191 35.0843 7.74289 37.0957 9.7543C39.1071 11.7657 39.7309 15.1623 38.6472 19.3764C37.5733 23.5528 34.8711 28.2423 30.7317 32.3817Z" stroke="#6927DA" stroke-width="3"/>
<path d="M30.7315 16.1182C34.8709 20.2576 37.5731 24.9472 38.647 29.1235C39.7307 33.3376 39.1069 36.7342 37.0955 38.7457C35.0841 40.7571 31.6874 41.3808 27.4733 40.2972C23.297 39.2233 18.6074 36.5211 14.4681 32.3817C10.3287 28.2423 7.62644 23.5528 6.55252 19.3764C5.4689 15.1623 6.09268 11.7657 8.10409 9.75427C10.1155 7.74287 13.5121 7.11908 17.7262 8.2027C21.9026 9.27663 26.5921 11.9788 30.7315 16.1182Z" stroke="#6927DA" stroke-width="3"/>
<path d="M63.45 34.24C68.16 34.24 71.34 31.78 71.34 27.85C71.34 19.54 60.3 23.08 60.3 18.7C60.3 17.47 61.41 16.63 63.18 16.63C65.19 16.63 66.45 17.71 66.6 19.36H70.89C70.77 15.37 67.71 12.76 63.18 12.76C58.92 12.76 55.92 15.22 55.92 18.7C55.92 26.95 66.81 23.8 66.81 27.91C66.81 29.5 65.46 30.34 63.45 30.34C61.23 30.34 59.82 28.99 59.64 26.86H55.32C55.5 31.33 58.68 34.24 63.45 34.24Z" fill="#101828"/>
<path d="M72.3602 40.12H76.5302V32.65C77.3402 33.67 78.8102 34.24 80.5202 34.24C84.8702 34.24 87.8102 31.15 87.8102 26.44C87.8102 21.73 85.1102 18.64 80.8802 18.64C78.9302 18.64 77.4302 19.36 76.5302 20.53V18.88H72.3602V40.12ZM80.0102 30.64C77.7602 30.64 76.2902 28.96 76.2902 26.44C76.2902 23.89 77.7602 22.21 80.0102 22.21C82.2002 22.21 83.7002 23.89 83.7002 26.44C83.7002 28.96 82.2002 30.64 80.0102 30.64Z" fill="#101828"/>
<path d="M88.8192 34H92.9892V25.72C92.9892 23.77 94.2792 22.36 96.1092 22.36C97.8492 22.36 99.0492 23.68 99.0492 25.51V34H103.219V24.58C103.219 21.1 100.999 18.64 97.6092 18.64C95.5092 18.64 93.8592 19.51 92.9892 20.98V12.31H88.8192V34Z" fill="#101828"/>
<path d="M114.885 28.87C114.555 30.16 113.445 30.82 111.765 30.82C109.665 30.82 108.315 29.5 108.015 27.37H118.875C118.905 27.04 118.935 26.59 118.935 26.02C118.935 22.57 116.805 18.64 111.465 18.64C106.335 18.64 103.995 22.57 103.995 26.41C103.995 30.22 106.635 34.24 111.765 34.24C115.485 34.24 118.365 32.14 118.965 28.87H114.885ZM111.465 21.7C113.475 21.7 114.645 23.05 114.765 24.73H108.075C108.435 22.63 109.575 21.7 111.465 21.7Z" fill="#101828"/>
<path d="M129.871 22.36V18.88H127.719C125.889 18.88 124.749 19.51 123.939 21.4V18.88H119.739V34H123.939V26.65C123.939 24.07 124.869 22.36 126.939 22.36H129.871Z" fill="#101828"/>
<path d="M144.271 18.88H140.071V27.16C140.071 29.08 138.781 30.52 136.951 30.52C135.241 30.52 134.041 29.2 134.041 27.37V18.88H129.871V28.3C129.871 31.75 132.091 34.24 135.481 34.24C137.551 34.24 139.231 33.34 140.071 31.9V34H144.271V18.88Z" fill="#101828"/>
<path d="M146.071 34H150.241V12.31H146.071V34Z" fill="#101828"/>
<path d="M162.146 28.87C161.816 30.16 160.706 30.82 159.026 30.82C156.926 30.82 155.576 29.5 155.276 27.37H166.136C166.166 27.04 166.196 26.59 166.196 26.02C166.196 22.57 164.066 18.64 158.726 18.64C153.596 18.64 151.256 22.57 151.256 26.41C151.256 30.22 153.896 34.24 159.026 34.24C162.746 34.24 165.626 32.14 166.226 28.87H162.146ZM158.726 21.7C160.736 21.7 161.906 23.05 162.026 24.73H155.336C155.696 22.63 156.836 21.7 158.726 21.7Z" fill="#101828"/>
</svg>
