<svg width="109" height="48" viewBox="0 0 109 48" fill="none" xmlns="http://www.w3.org/2000/svg">
<path d="M108.672 18.254H46.7736V0H0.616211V36.5071H68.3282L89.8588 48L80.9421 36.5071H108.672V18.254Z" fill="black"/>
<path d="M3.17871 3.36945H5.08553L5.82897 10.1241H5.86126L6.86318 3.36945H8.75377L9.67489 10.1241H9.70718L10.5314 3.36945H12.0342L10.5314 14.8751H8.62446L7.62269 7.58709H7.59025L6.55604 14.8751H4.71396L3.17871 3.36945Z" fill="white"/>
<path d="M13.0088 3.36938H15.1095V14.875H13.0088V3.36938Z" fill="white"/>
<path d="M16.6992 3.36938H19.0586C21.0622 3.36938 22.3874 4.2097 22.3874 6.63362C22.3874 7.60325 22.0965 8.89593 21.1593 9.44533L22.4036 14.875H20.2867L19.301 9.93014H18.7999V14.875H16.6992V3.36938ZM18.7999 8.24967H19.2202C19.9957 8.24967 20.2867 7.47393 20.2867 6.64984C20.2867 5.40551 19.8341 5.05001 19.1231 5.05001H18.7999V8.24967Z" fill="white"/>
<path d="M24.1506 14.875H23.375V12.7743H25.4757V14.7134L24.2314 17.2989H23.3912L24.1506 14.875Z" fill="white"/>
<path d="M28.4844 3.36938H30.3104C33.8331 3.36938 34.1725 5.6317 34.1725 9.12227C34.1725 12.4511 33.8978 14.875 30.6498 14.875H28.4844V3.36938ZM30.5851 13.0975C31.9102 13.0813 31.9748 12.5965 31.9748 9.10605C31.9748 5.6317 31.9102 5.16311 30.5851 5.14704V13.0975Z" fill="white"/>
<path d="M35.4902 3.36938H37.5909V14.875H35.4902V3.36938Z" fill="white"/>
<path d="M38.9766 3.36938H43.7275V5.14704H41.0773V8.08806H43.0326V9.96258H41.0773V13.0975H43.8406V14.875H38.9766V3.36938Z" fill="white"/>
<path d="M7.36454 25.7378C7.36454 25.2045 7.49385 23.1845 6.58896 23.1845C6.07185 23.1845 5.68391 23.6694 5.68391 27.3699C5.68391 31.1512 6.03941 31.5875 6.68583 31.5875C7.47763 31.5875 7.54236 30.0039 7.54236 29.4545H6.76663V27.7739H9.31986V33.1388H8.43104L8.14027 32.3793C7.81706 32.8641 7.20293 33.365 6.47571 33.365C4.22962 33.365 3.48633 31.1675 3.48633 27.3861C3.48633 22.9906 4.8113 21.407 6.47571 21.407C7.83313 21.407 9.23906 22.0535 9.23906 24.9945V25.7378H7.36454Z" fill="white"/>
<path d="M10.6826 21.6332H15.4336V23.4108H12.7833V26.3519H14.7387V28.2262H12.7833V31.3613H15.5467V33.1388H10.6826V21.6332Z" fill="white"/>
<path d="M16.6836 21.6332H19.2691C20.5618 21.6332 22.1131 22.3442 22.1131 24.5419C22.1131 25.8348 21.5314 26.8365 20.2387 27.1114V27.1437C21.6768 27.4829 22.3395 28.4849 22.3395 29.9391C22.3395 32.04 20.9175 33.1388 19.366 33.1388H16.6836V21.6332ZM18.7843 26.3519C19.8347 26.3519 20.1094 25.867 20.1094 24.8328C20.1094 23.5239 19.8347 23.2976 18.7843 23.3138V26.3519ZM18.7843 31.4582C20.0447 31.4582 20.2387 30.9573 20.2387 29.7615C20.2387 28.711 19.9801 28.1131 18.7843 28.1294V31.4582Z" fill="white"/>
<path d="M24.6882 21.6332H27.7262L29.1482 33.1388H27.1283L26.8212 30.5856H25.1245L24.8335 33.1388H23.0723L24.6882 21.6332ZM23.9932 19.3386H25.6739V21.0192H23.9932V19.3386ZM26.0294 23.4108H25.9971L25.3346 28.9049H26.6435L26.0294 23.4108ZM26.5465 19.3386H28.2271V21.0192H26.5465V19.3386Z" fill="white"/>
<path d="M30.1553 21.6332H32.256V30.5371C32.256 31.0542 32.3691 31.5875 32.9832 31.5875C33.5649 31.5875 33.7588 31.0866 33.7588 30.5371V21.6332H35.5364V30.2624C35.5364 32.5247 34.5345 33.365 32.8539 33.365C31.238 33.365 30.1553 32.5247 30.1553 30.2624V21.6332Z" fill="white"/>
<path d="M37.126 21.6332H38.952C42.4747 21.6332 42.8141 23.8955 42.8141 27.3861C42.8141 30.7149 42.5394 33.1388 39.2914 33.1388H37.126V21.6332ZM39.2267 31.3613C40.5518 31.3451 40.6164 30.8603 40.6164 27.3698C40.6164 23.8955 40.5518 23.4269 39.2267 23.4108V31.3613Z" fill="white"/>
<path d="M44.0088 21.6332H48.7598V23.4108H46.1095V26.3519H48.0648V28.2262H46.1095V31.3613H48.8728V33.1388H44.0088V21.6332Z" fill="white"/>
<path d="M51.472 23.4108H49.6621V21.6332H55.3826V23.4108H53.5728V33.1388H51.472V23.4108Z" fill="white"/>
<path d="M56.1719 21.6332H60.9227V23.4108H58.2726V26.3519H60.2279V28.2262H58.2726V31.3613H61.0359V33.1388H56.1719V21.6332Z" fill="white"/>
<path d="M65.6139 25.8024C65.6139 23.8955 65.3715 23.1845 64.8544 23.1845C64.4181 23.1845 63.9818 23.4755 63.9818 27.3861C63.9818 31.1675 64.2081 31.5875 64.8544 31.5875C65.5493 31.5875 65.7109 30.521 65.7432 28.8566L67.5207 28.9374C67.5207 30.9411 67.2299 33.365 64.7737 33.365C62.5275 33.365 61.7842 31.1675 61.7842 27.3861C61.7842 22.9906 63.1092 21.407 64.7737 21.407C67.1976 21.407 67.4884 23.6371 67.4884 25.7378L65.6139 25.8024Z" fill="white"/>
<path d="M68.6582 21.6332H70.7589V26.2548H72.084V21.6332H74.1848V33.1388H72.084V28.2587H70.7589V33.1388H68.6582V21.6332Z" fill="white"/>
<path d="M75.7734 21.6332H77.8256L79.7487 27.7093H79.781V21.6332H81.4616V33.1388H79.8295L77.5832 26.174H77.5509V33.1388H75.7734V21.6332Z" fill="white"/>
<path d="M82.9697 21.6332H85.0704V33.1388H82.9697V21.6332Z" fill="white"/>
<path d="M86.6602 21.6332H88.7609V26.4487H88.7932L90.5384 21.6332H92.4129L90.8455 25.4953L92.7361 33.1388H90.7162L89.5527 27.984H89.5204L88.7609 29.7938V33.1388H86.6602V21.6332Z" fill="white"/>
<path d="M93.9375 21.6332H98.6883V23.4108H96.0382V26.3519H97.9935V28.2262H96.0382V31.3613H98.8016V33.1388H93.9375V21.6332Z" fill="white"/>
<path d="M100.1 21.6332H102.459C104.463 21.6332 105.788 22.4735 105.788 24.8974C105.788 25.867 105.497 27.1597 104.56 27.7093L105.804 33.1388H103.687L102.701 28.1939H102.2V33.1388H100.1V21.6332ZM102.2 26.5135H102.621C103.396 26.5135 103.687 25.7377 103.687 24.9136C103.687 23.6693 103.235 23.3138 102.524 23.3138H102.2V26.5135Z" fill="white"/>
</svg>
